<svg xmlns="http://www.w3.org/2000/svg" viewBox="0 0 256 256"><g fill="#0d2d52"><path d="M39.6 39.6c-13.8 2.9-24.7 13.8-28.5 28.3l-1.1 4v112.2l1.1 3.9c3.9 14.7 14.8 25.5 28.8 28.4 3.2.6 12.6.7 88.1.7 92.7 0 87.6.1 94.6-2.7 11-4.5 19.1-14.1 22.4-26.4l1.1-3.9V71.9L245 68c-3.9-14.7-14.8-25.5-28.8-28.4-3.2-.6-12.6-.7-88.4-.7-73.4 0-85.4.1-88.2.7zm175 18.1c5 1.8 9.2 5.9 11.4 11.1l1 2.5v56.3c0 53.4 0 56.5-.8 58.7-1.2 3.4-4.3 7.4-7.3 9.5-5 3.4 2 3.2-92.8 3l-85.2-.1-2.7-1.2c-3.3-1.5-7.2-5.1-8.8-8.2-2.6-4.8-2.6-3.9-2.6-61.4 0-56.6 0-56.4 2.3-61 1.3-2.6 4.8-6.2 7.3-7.7 4.2-2.5-.6-2.4 90.8-2.4 82.9.1 84.9.1 87.4.9z"/><path d="M84.1 69.1c-7.3 2.1-12.6 8.1-13.9 15.9-2.2 12.9 9.2 24.8 21.7 22.6 10.3-1.8 16.7-10.1 16.2-20.9-.4-7.2-4.3-13.2-10.8-16.3-4.1-1.9-9-2.5-13.2-1.3zM156.5 115.2c-10.3 14.5-19 26.7-19.2 27.1-.3.5-5.4-.8-23.6-6l-23.1-6.6-2 2c-1.1 1.1-12.7 13.7-25.8 27.9L39 185.5l44.6.1h88.8l44.3-.1-20.4-48.4c-11.2-26.6-20.5-48.4-20.6-48.3-.2 0-8.9 11.9-19.2 26.4z"/></g></svg>