<svg xmlns="http://www.w3.org/2000/svg" viewBox="0 0 13.95 13.95">
  <path fill="#fff" d="M1 1h11.95v11.95H1z" />
  <path fill="#0d2d52"
    d="M13.206 0H.743A.743.743 0 000 .743v12.465c0 .41.333.742.742.742h12.464a.742.742 0 00.743-.742V.743A.742.742 0 0013.206 0zM9.214 11.022a3.98 3.98 0 01-2.737 1.084c-2.202 0-3.993-1.785-3.993-3.979 0-1.209.541-2.338 1.486-3.098l.168-.135.835 1-.176.14a2.666 2.666 0 00-1.011 2.093 2.69 2.69 0 004.295 2.149l.106-.08 1.261.607-.234.219zm3.121-.35l-.032.18-1.96.012-1.188-2.982-3.232.002-.431-4.197s-.442-.34-.442-.875a1.089 1.089 0 012.178 0c0 .322-.146.614-.39.818l.055 1.088h2.18l.002 1.223-2.076-.007.042.708 2.984-.007 1.119 3.059.696-.008a.47.47 0 01.368.166c.217.26.144.728.127.82z" />
</svg>