<svg width="512" height="512" xmlns="http://www.w3.org/2000/svg">
  <g class="prefix__layer">
    <rect x="10" y="10" height="492" width="492" fill="#fff" stroke="#0d2d52" rx="40" stroke-width="20" />
    <path
      d="M291.45 178.76c-35.73 0-64.79-29.07-64.79-64.8s29.06-64.8 64.79-64.8c15.51 0 30.52 5.57 42.26 15.67 5.11 4.41 5.7 12.13 1.28 17.24-4.4 5.12-12.12 5.7-17.24 1.29a40.312 40.312 0 00-26.31-9.76c-22.24 0-40.34 18.1-40.34 40.35s18.1 40.34 40.34 40.34c6.75 0 12.23 5.47 12.23 12.22s-5.48 12.23-12.23 12.23z"
      fill="#0d2d52" />
    <path
      d="M291.45 166.53c-3.85 0-7.6-.42-11.22-1.21l-8.91 30.78h-98.14a3.05 3.05 0 00-3.05 3.05v42.3a3.05 3.05 0 003.05 3.05h87.41l-9.41 42.47h-95.7c-1.44 0-2.67.99-2.99 2.4l-25.76 90.04H81.95a3.05 3.05 0 00-3.05 3.05v42.3c0 1.69 1.37 3.06 3.05 3.06h78.55c1.41 0 2.64-.97 2.97-2.34l28.18-90.1h95.82c1.42 0 2.66-.99 2.98-2.38l47.86-193.98c.1-.43.1-.86.02-1.28-8.69 17.08-26.41 28.78-46.89 28.78z"
      fill="#9bece5" />
    <path
      d="M160.5 440.05H81.95c-8.43 0-15.28-6.86-15.28-15.29v-42.3c0-8.43 6.85-15.28 15.28-15.28h35.56l23.16-80.96c1.71-6.68 7.86-11.48 14.8-11.48h85.88l4-18.02h-72.18c-8.43 0-15.29-6.86-15.29-15.29v-42.3c0-8.43 6.86-15.28 15.29-15.28h88.96l6.35-21.96c1.79-6.17 8.06-9.91 14.34-8.54 2.85.61 5.75.93 8.63.93 15.26 0 29.05-8.47 35.98-22.1 2.36-4.64 7.4-7.28 12.56-6.57s9.31 4.61 10.33 9.72c.43 2.14.4 4.28-.08 6.38-.02.07-.03.14-.05.21l-47.86 193.93c-1.65 6.92-7.74 11.74-14.87 11.74h-86.82l-25.42 81.27a15.236 15.236 0 01-14.72 11.17zM91.12 415.6h62.63l26.23-83.87c1.59-5.11 6.32-8.58 11.67-8.58h88.63l36.94-149.71c-8.68 3.75-18.28 5.62-28.16 5.26l-6.02 20.79c-1.51 5.23-6.3 8.82-11.74 8.82h-88.97v23.96h78.24c3.71 0 7.22 1.68 9.53 4.57 2.32 2.89 3.21 6.68 2.4 10.3l-9.41 42.47c-1.24 5.6-6.2 9.58-11.93 9.58h-88.78l-23.92 83.58c-1.5 5.24-6.29 8.86-11.76 8.86H91.1v23.96z"
      fill="#0d2d52" />
    <path
      d="M300.01 462.84c-35.91 0-70.38-13.21-97.08-37.19a12.22 12.22 0 01-3.5-12.74l12.01-38.38c2.01-6.45 8.87-10.04 15.31-8.02 6.45 2.02 10.03 8.87 8.02 15.32l-9.57 30.62c21.26 16.78 47.54 25.94 74.81 25.94 66.65 0 120.87-54.22 120.87-120.88 0-42.92-23.09-83-60.26-104.59-5.84-3.39-7.82-10.88-4.43-16.71 3.39-5.84 10.88-7.82 16.71-4.44 44.67 25.95 72.43 74.13 72.43 125.74 0 80.13-65.19 145.33-145.32 145.33z"
      fill="#0d2d52" />
  </g>
</svg>