<svg xmlns="http://www.w3.org/2000/svg" viewBox="0 0 512 512">
	<rect id="rounded-rectangle" x="0" y="0" height="512" width="512" fill="#ffffff" rx="5" fill="transparent" />
	<path
		d="M299.874 160.395c-44.221 0-80.197-35.977-80.197-80.197S255.653 0 299.874 0a80.194 80.194 0 0152.305 19.403c6.334 5.453 7.047 15.006 1.595 21.34-5.453 6.334-15.006 7.047-21.34 1.595a49.913 49.913 0 00-32.56-12.075c-27.533 0-49.934 22.401-49.934 49.934s22.401 49.934 49.934 49.934c8.357 0 15.132 6.774 15.132 15.132s-6.775 15.132-15.132 15.132z"
		fill="#0d2d52" />
	<path
		d="M299.874 145.263c-4.771 0-9.416-.528-13.894-1.503l-11.031 38.097h-121.47a3.782 3.782 0 00-3.783 3.783v52.351a3.782 3.782 0 003.783 3.783h108.189l-11.65 52.563H131.579a3.783 3.783 0 00-3.695 2.97L95.996 408.75H40.584a3.782 3.782 0 00-3.783 3.783v52.351a3.782 3.782 0 003.783 3.783h97.22a3.781 3.781 0 003.678-2.899l34.88-111.514h118.585a3.784 3.784 0 003.689-2.942l59.248-240.096c.12-.525.113-1.061.012-1.577-10.751 21.136-32.687 35.624-58.022 35.624z"
		fill="#9bece5" />
	<g fill="#0d2d52">
		<path
			d="M137.803 483.799h-97.22c-10.43 0-18.914-8.484-18.914-18.914v-52.351c0-10.43 8.484-18.914 18.914-18.914h44.004l28.67-100.2c2.127-8.274 9.73-14.215 18.321-14.215h106.295l4.943-22.299h-89.337c-10.43 0-18.914-8.484-18.914-18.914V185.64c0-10.43 8.484-18.914 18.914-18.914h110.097l7.868-27.173c2.214-7.648 9.978-12.266 17.751-10.577a50.326 50.326 0 0010.677 1.156c18.887 0 35.951-10.48 44.531-27.35a15.122 15.122 0 0115.552-8.132 15.132 15.132 0 0112.774 12.034 18.796 18.796 0 01-.161 8.159l-59.227 240.014c-2.04 8.564-9.58 14.531-18.4 14.531H187.48L156.016 469.98a18.85 18.85 0 01-18.213 13.819zm-85.872-30.263h77.521l32.466-103.798a15.134 15.134 0 0114.442-10.615h109.696l45.723-185.295c-10.736 4.639-22.632 6.958-34.847 6.513l-7.449 25.725a15.132 15.132 0 01-14.534 10.923h-110.12v29.653h96.841a15.131 15.131 0 0114.773 18.406l-11.65 52.563a15.132 15.132 0 01-14.773 11.857H140.142l-29.599 103.444a15.132 15.132 0 01-14.548 10.969H51.931v29.655z" />
		<path
			d="M310.468 512c-44.44 0-87.11-16.347-120.151-46.029a15.127 15.127 0 01-4.329-15.773l14.858-47.501c2.494-7.976 10.982-12.422 18.958-9.925 7.976 2.494 12.42 10.982 9.925 18.958l-11.854 37.902c26.318 20.767 58.842 32.103 92.595 32.103 82.49 0 149.6-67.11 149.6-149.6 0-53.126-28.578-102.73-74.581-129.452-7.225-4.198-9.681-13.46-5.484-20.685 4.197-7.227 13.46-9.68 20.685-5.484 55.294 32.12 89.643 91.75 89.643 155.621C490.331 431.314 409.645 512 310.468 512z" />
	</g>
</svg>