<svg xmlns="http://www.w3.org/2000/svg" viewBox="0 0 512 512"><path d="M478.733 170.634H387.7c-9.059 0-16.406-7.345-16.406-16.406s7.346-16.406 16.406-16.406h91.033c9.059 0 16.406 7.345 16.406 16.406s-7.347 16.406-16.406 16.406z" fill="#0d2d52"/><path d="M188.332 256l109.01-106.068V32.49c0-14.271-17.229-21.447-27.358-11.394L33.267 256l236.715 234.904c10.13 10.052 27.358 2.878 27.358-11.394V362.068L188.332 256z" fill="#9bece5"/><g fill="#0d2d52"><path d="M478.733 341.366H299.59L211.858 256l96.925-94.31a16.404 16.404 0 004.964-11.758V32.49C313.746 14.575 299.135 0 281.174 0c-8.528 0-16.606 3.357-22.746 9.45L21.711 244.355a16.404 16.404 0 000 23.29L258.426 502.55c6.141 6.093 14.219 9.45 22.746 9.45h.002a32.674 32.674 0 0022.377-8.833c6.574-6.142 10.194-14.543 10.194-23.657V374.177H478.73c9.059 0 16.406-7.345 16.406-16.406s-7.344-16.405-16.403-16.405zM280.93 478.657L56.558 256 280.935 33.344v109.659L176.891 244.242a16.404 16.404 0 000 23.516l104.044 101.237-.005 109.662z"/><path d="M443.166 272.406H286.895c-9.059 0-16.406-7.345-16.406-16.406s7.346-16.406 16.406-16.406h156.271c9.059 0 16.406 7.345 16.406 16.406s-7.347 16.406-16.406 16.406z"/></g></svg>