<svg xmlns="http://www.w3.org/2000/svg" viewBox="0 0 473.931 473.931"><circle cx="236.966" cy="236.966" r="236.966" fill="#fff"/><g fill="#e9c29c"><path d="M379.089 234.911c0 79.995-64.807 144.81-144.772 144.81S89.544 314.907 89.544 234.911c0-79.935 64.807-144.761 144.772-144.761s144.773 64.826 144.773 144.761z"/><path d="M263.016 349.615c.659-2.773 3.465-4.456 6.219-3.824.453.101 22.129 5.134 49.036 7.068 35.318-25.19 58.832-65.825 60.673-112.077-11.401-.483-24.767.767-39.67 2.17-14.469 1.366-30.87 2.915-47.794 2.915-2.859 0-5.16-2.309-5.16-5.164s2.301-5.164 5.16-5.164c16.445 0 31.884-1.463 46.824-2.874 14.69-1.373 28.422-2.645 40.677-2.148-2.324-77.903-66.177-140.372-144.664-140.372-79.965 0-144.772 64.826-144.772 144.761 0 79.995 64.807 144.81 144.772 144.81 25.182 0 48.864-6.44 69.484-17.743-20.374-2.294-35.401-5.777-36.965-6.148a5.145 5.145 0 01-3.82-6.21z"/><path d="M269.235 345.791c-2.754-.632-5.56 1.051-6.219 3.824-.666 2.776 1.051 5.549 3.82 6.215 1.564.37 16.591 3.85 36.965 6.148a144.978 144.978 0 0014.469-9.122c-26.907-1.931-48.583-6.964-49.035-7.065z"/></g><ellipse cx="288.939" cy="247.405" rx="19.839" ry="20.954" fill="#343433"/><path d="M303.049 239.465c0 4.614-3.543 8.385-7.936 8.385-4.348 0-7.906-3.772-7.906-8.385 0-4.644 3.558-8.382 7.906-8.382 4.392.001 7.936 3.739 7.936 8.382z" fill="#fff"/><ellipse cx="180.577" cy="247.405" rx="19.839" ry="20.954" fill="#343433"/><path d="M194.508 239.465c0 4.614-3.543 8.385-7.936 8.385-4.378 0-7.921-3.772-7.921-8.385 0-4.644 3.543-8.382 7.921-8.382 4.392.001 7.936 3.739 7.936 8.382z" fill="#fff"/><path d="M379.089 234.911l-98.711-88.807s-46.413 2.144-102.468 27.487c-54.057 24.445-88.365 61.32-88.365 61.32 0-79.935 64.807-144.761 144.772-144.761s144.772 64.826 144.772 144.761z" fill="#6b491e"/><g fill="#5a5a5a"><path d="M118.76 233.823H89.563c0 .367-.022.722-.022 1.089 0 6.417.453 12.722 1.265 18.915h27.955v-20.004zM379.066 233.823h-30.585v20.003h29.343c.804-6.189 1.265-12.497 1.265-18.915 0-.366-.023-.722-.023-1.088z"/></g><path d="M185.704 294.02s24.067 6.174 48.329 6.174c24.247 0 46.802-6.174 46.802-6.174l-46.892-73.541-48.239 73.541z" fill="#d8e4e1" opacity=".6"/><path d="M252.528 294.903c0 6.107-10.896 7.921-18.623 7.921-7.723 0-18.634-1.815-18.634-7.921l7.551-47.06c0-6.107 3.36-11.068 11.087-11.068 7.723 0 11.079 4.962 11.079 11.068l7.54 47.06z" fill="#cad8d4" opacity=".8"/><path d="M233.909 302.824c-7.723 0-18.634-1.815-18.634-7.921l7.551-47.06c0-6.107 3.36-11.068 11.087-11.068v66.05h-.004z" fill="#bdd2ce" opacity=".8"/><path d="M350.281 208.989l-7.162-6.443c-6.05-4.876-20.037-14.612-51.625-15.584v-.052h-2.017c-2.11-.041-4.277-.041-6.496 0h-103.22c-13.549-.262-24.321 1.096-32.916 3.162a319.057 319.057 0 00-35.064 24.711 83.66 83.66 0 00-.198 3.229c-.554 13.272 3.143 2.743 8.542-.876 5.384-3.618 33.751-18.855 87.726-7.091 6.503 1.418 40.546 1.418 47.041 0 53.971-11.768 82.334 3.472 87.726 7.091 5.392 3.622 9.216 12.374 8.419-1.62-.172-3.025-.427-5.087-.756-6.527z" fill="#ececec" opacity=".6"/><path d="M353.462 211.278c-4.939-3.903-24.527-16.55-59.913-17.672v-.052h-1.979a142.031 142.031 0 00-6.462 0H182.785c-40.737-.823-63.034 13.519-68.34 17.721-7.076 5.605-1.71 52.179 4.142 62.428 5.852 10.241 36.576 26.331 56.325 26.574 11.416.138 28.033-19.349 40.931-40.576 2.507-3.398 10.013-12.475 18.181-12.475 10.043 0 18.739 13.732 18.739 13.732l-.03-.123c12.789 20.782 29.044 39.577 40.254 39.442 19.745-.24 50.461-16.329 56.31-26.574 5.867-10.246 11.229-56.819 4.165-62.425zm-178.95 72.737c-13.74-.168-35.109-11.349-39.18-18.481-4.071-7.117-7.798-39.509-2.881-43.412 4.913-3.895 30.795-20.292 80.047-7.629 5.919 1.523 4.801 5.197 3.558 11.876-3.225 17.119-27.812 57.821-41.544 57.646zm158.056-18.481c-4.071 7.132-25.448 18.316-39.173 18.481-13.74.176-38.331-40.527-41.56-57.646-1.25-6.679-2.361-10.353 3.581-11.876 49.242-12.662 75.112 3.734 80.033 7.629 4.909 3.903 1.19 36.291-2.881 43.412z" fill="#377ec0"/><path d="M172.461 283.891c-12.445-3.398-27.363-10.488-36.651-17.68 4.701 6.788 23.379 16.584 36.651 17.68z" fill="#d8e4e1"/><path d="M216.06 226.369c1.242-6.679 2.361-10.353-3.558-11.876-49.249-12.662-75.135 3.734-80.047 7.629-4.917 3.903-1.19 36.291 2.881 43.412.123.221.322.453.475.681 9.287 7.192 24.205 14.279 36.651 17.68.696.067 1.388.12 2.054.123 13.728.172 38.315-40.53 41.544-57.649z" fill="#d8e4e1" opacity=".6"/><path d="M332.07 266.241c-9.261 7.184-24.108 14.267-36.542 17.65 13.25-1.141 31.812-10.881 36.542-17.65z" fill="#d8e4e1"/><path d="M335.445 222.122c-4.917-3.895-30.791-20.292-80.032-7.629-5.942 1.523-4.831 5.197-3.581 11.876 3.229 17.119 27.824 57.821 41.56 57.646a28.21 28.21 0 002.133-.123c12.43-3.383 27.281-10.466 36.542-17.65.168-.236.367-.479.498-.707 4.074-7.122 7.793-39.51 2.88-43.413z" fill="#d8e4e1" opacity=".6"/><path d="M342.191 218.066c-3.895-3.083-19.061-12.875-46.357-14.215v-.12h-3.817c-1.732-.041-3.51-.041-5.321 0H181.202a115.086 115.086 0 00-5.321 0h-2.638v.067c-28.033 1.111-43.584 11.139-47.532 14.267-5.706 4.546-1.381 42.229 3.353 50.521 4.737 8.295 29.605 21.313 45.59 21.519 12.307.15 32.044-27.82 42.233-49.818l-.067.329s7.207-17.56 17.212-17.56c7.244 0 13.01 9.205 15.663 14.279 9.691 22.353 30.694 52.923 43.543 52.774 15.981-.206 40.86-13.223 45.59-21.519 4.737-8.294 9.085-45.978 3.363-50.524zm-126.131 8.303c-3.229 17.119-27.816 57.821-41.549 57.646-13.74-.168-35.109-11.349-39.18-18.481-4.071-7.117-7.798-39.509-2.881-43.412 4.913-3.895 30.795-20.292 80.047-7.629 5.925 1.523 4.806 5.197 3.563 11.876zm116.508 39.165c-4.071 7.132-25.448 18.316-39.173 18.481-13.74.176-38.331-40.527-41.56-57.646-1.25-6.679-2.361-10.353 3.581-11.876 49.242-12.662 75.112 3.734 80.033 7.629 4.909 3.903 1.19 36.291-2.881 43.412z" fill="#5a5a5a"/><path d="M416.435 241.276c-8.718-7.925-20.595-11.936-37.373-12.628l-2.009-.079.094 3.106c.037 1.074.075 2.151.075 3.237 0 1.946-.067 3.865-.146 5.788l-.079 1.871 1.871.079c13.018.561 21.945 3.427 28.093 9.029 9.04 8.224 13.433 23.771 13.433 47.528 0 15.689-5.291 27.509-16.179 36.112-1.227.973-17.818 12.7-42.607 15.974s-26.267 1.171-60.504-2.009v-.786l-30.417-7.356v3.053a48.276 48.276 0 01-1.029-.236c-3.727-.857-7.577 1.527-8.456 5.216a6.958 6.958 0 00.842 5.302 7.018 7.018 0 004.37 3.173c.438.101 1.931.449 4.277.943v2.99l30.417 2.694v-.733a329.913 329.913 0 0018.226 1.691l1.658.094c2.069.127 4.157.232 6.301.311l2.185.082c2.69.079 5.399.135 8.135.135 33.616 0 58.963-6.559 75.318-19.495 14.286-11.289 21.538-27.154 21.538-47.157-.013-28.324-5.742-46.733-18.034-57.929z" fill="#525252"/><circle cx="233.823" cy="349.331" r="42.611" fill="#5a5a5a"/><circle cx="233.823" cy="349.331" r="14.859" fill="#717171"/><path d="M222.201 349.349c0-6.432 5.205-11.641 11.641-11.641 6.425 0 11.626 5.212 11.626 11.641 0 6.421-5.205 11.629-11.626 11.629-6.44.001-11.641-5.208-11.641-11.629z" fill="#5a5a5a"/><path d="M227.645 343.505c2.952-2.96 7.184-3.502 9.455-1.224 2.279 2.275-8.389 12.969-10.664 10.686-2.286-2.278-1.736-6.517 1.209-9.462z" fill="#525252"/><g fill="#676767"><path d="M209.905 347.639c0-12.262 9.946-22.211 22.211-22.211v-10.511c-18.073 0-32.718 14.645-32.718 32.718 0 .06.007.116.007.172h10.526c-.003-.052-.026-.108-.026-.168zM209.905 350.812c0 12.262 9.946 22.204 22.211 22.204v10.511c-18.073 0-32.718-14.638-32.718-32.71 0-.067.007-.12.007-.18h10.526c-.003.052-.026.108-.026.175zM257.527 347.639c0-12.262-9.946-22.211-22.211-22.211v-10.511c18.065 0 32.718 14.645 32.718 32.718 0 .06-.007.116-.007.172h-10.518c.003-.052.018-.108.018-.168zM257.527 350.812c0 12.262-9.946 22.204-22.211 22.204v10.511c18.065 0 32.718-14.638 32.718-32.71 0-.067-.007-.12-.007-.18h-10.518c.003.052.018.108.018.175z"/></g></svg>