<svg xmlns="http://www.w3.org/2000/svg" viewBox="0 0 473.935 473.935"><circle cx="236.967" cy="236.967" r="236.967" fill="#f6faff"/><path d="M236.952 473.935c78.533 0 148.115-38.222 191.232-97.058-8.011-11.48-39.525-45.025-145.593-70.548 0-24.082-2.398-38.507-2.398-38.507s31.289-43.337 33.691-103.513c0-9.568 4.7-77.436-77.017-80.508V83.7c-.202 0-.382.045-.602.045-.21 0-.385-.045-.595-.045v.101c-81.702 3.068-77.017 70.941-77.017 80.505 2.398 60.175 33.691 103.513 33.691 103.513s-2.417 14.425-2.417 38.507C86.664 331.174 54.08 363.623 45.044 375.908c43.06 59.378 112.953 98.027 191.908 98.027z" fill="#0d2d52"/></svg>