<svg xmlns="http://www.w3.org/2000/svg" viewBox="0 0 423.614 423.614"><path d="M218.575 218.571c34.699-34.701 34.699-91.162 0-125.862-16.81-16.81-39.16-26.066-62.931-26.066-23.772 0-46.121 9.257-62.929 26.065-16.81 16.811-26.067 39.16-26.067 62.932 0 23.772 9.258 46.121 26.066 62.931 16.81 16.81 39.158 26.067 62.93 26.067s46.121-9.257 62.931-26.067zM107.291 119.75c-4.687-4.687-4.687-12.284 0-16.971 12.915-12.914 30.086-20.027 48.351-20.027h.001c18.266 0 35.438 7.113 48.354 20.03 4.686 4.687 4.686 12.285-.002 16.971a11.96 11.96 0 01-8.484 3.515 11.96 11.96 0 01-8.486-3.515c-8.381-8.383-19.526-13-31.381-13s-23 4.616-31.382 12.998c-4.687 4.685-12.284 4.685-16.971-.001zM291.483 231.642l98.461 98.591V71.944H286.872c30.822 48.313 32.365 110.049 4.611 159.698zM155.644 311.282c-30.12 0-58.93-8.504-83.699-24.366v103.026h258.257l-98.647-98.356c-22.937 12.854-48.898 19.696-75.911 19.696zm99.071 40.705c0 6.628-5.373 12-12 12H107.589c-6.627 0-12-5.372-12-12s5.373-12 12-12h135.126c6.627 0 12 5.373 12 12z" fill="#fff"/><path d="M394.434 368.692L277.879 251.984a156.367 156.367 0 01-12.18 13.712 158.001 158.001 0 01-13.809 12.276l116.778 116.434c.091.081.179.164.269.249 7.086 6.79 18.5 6.667 25.441-.276 6.941-6.942 7.064-18.357.275-25.449-.072-.079-.147-.158-.219-.238zM248.729 248.725c51.324-51.327 51.324-134.842 0-186.169C223.864 37.692 190.806 24 155.644 24c-35.163 0-68.221 13.692-93.083 38.556-24.865 24.864-38.559 57.922-38.559 93.084 0 35.163 13.694 68.221 38.558 93.085 24.862 24.864 57.921 38.557 93.083 38.557 35.164 0 68.221-13.693 93.086-38.557zM42.647 155.64c0-30.183 11.754-58.559 33.097-79.902 21.34-21.342 49.715-33.095 79.899-33.095 30.182 0 58.559 11.753 79.901 33.095 44.058 44.059 44.058 115.746 0 159.803-21.341 21.343-49.717 33.097-79.901 33.097-30.183 0-58.559-11.754-79.901-33.098-21.341-21.341-33.095-49.717-33.095-79.9z" fill="#30a2ad"/><path d="M235.544 235.542c44.058-44.058 44.058-115.745 0-159.803-21.342-21.342-49.719-33.095-79.901-33.095-30.184 0-58.559 11.753-79.899 33.095-21.343 21.343-33.097 49.719-33.097 79.902s11.754 58.559 33.095 79.9c21.342 21.344 49.718 33.098 79.901 33.098 30.184-.001 58.56-11.755 79.901-33.097zM66.647 155.64c0-23.771 9.258-46.121 26.067-62.932 16.808-16.809 39.156-26.065 62.929-26.065 23.771 0 46.121 9.257 62.931 26.066 34.699 34.7 34.699 91.161 0 125.862-16.81 16.81-39.159 26.067-62.931 26.067-23.771 0-46.12-9.257-62.93-26.067-16.808-16.81-26.066-39.159-26.066-62.931z" fill="#0d2d52"/><path d="M187.024 119.752a11.96 11.96 0 008.486 3.515c3.07 0 6.143-1.171 8.484-3.515 4.688-4.686 4.688-12.284.002-16.971-12.916-12.916-30.088-20.03-48.354-20.03h-.001c-18.265 0-35.437 7.113-48.351 20.027-4.687 4.687-4.687 12.284 0 16.971 4.687 4.686 12.284 4.686 16.971 0 8.382-8.382 19.526-12.998 31.382-12.998 11.855.001 23.001 4.618 31.381 13.001z" fill="#0d2d52"/><path d="M413.944 354.526V59.944c0-6.627-5.373-12-12-12H267.999c-.758-.792-1.522-1.58-2.299-2.358C236.301 16.188 197.216 0 155.644 0 114.069 0 74.985 16.188 45.59 45.585 16.192 74.981.002 114.066.002 155.64c0 41.574 16.19 80.659 45.587 110.056.777.777 1.563 1.54 2.354 2.298v133.949c0 6.627 5.373 12 12 12h294.589c7.762 6.452 17.367 9.673 26.973 9.672 10.842-.001 21.68-4.099 29.846-12.267 15.4-15.4 16.325-40.295 2.593-56.822zm-19.565 39.852c-6.941 6.943-18.355 7.066-25.441.276-.09-.085-.178-.167-.269-.249L251.891 277.972a158.165 158.165 0 0013.809-12.276 156.367 156.367 0 0012.18-13.712l116.555 116.709c.072.08.146.159.221.236 6.788 7.092 6.665 18.507-.277 25.449zm-4.435-322.434v258.289l-98.461-98.591c27.754-49.649 26.211-111.385-4.611-159.698h103.072zM24.002 155.64c0-35.162 13.694-68.22 38.558-93.084C87.423 37.692 120.48 24 155.644 24c35.162 0 68.22 13.692 93.085 38.556 51.324 51.327 51.324 134.843 0 186.169-24.865 24.864-57.922 38.557-93.085 38.557-35.162 0-68.221-13.693-93.083-38.557-24.865-24.864-38.559-57.922-38.559-93.085zm47.942 234.302V286.916c24.77 15.862 53.579 24.366 83.699 24.366 27.014 0 52.975-6.842 75.912-19.696l98.647 98.356H71.944z" fill="#0d2d52"/></svg>