<svg xmlns="http://www.w3.org/2000/svg" viewBox="0 0 400.064 400.064">
	<path
		d="M137.052 121.508c6.627 0 12 5.372 12 12V288.09h101.951V133.508c0-6.628 5.373-12 12-12h32.723l-95.699-76.259-95.699 76.259h32.724z"
		fill="#30a2ad" />
	<g fill="#fff">
		<path
			d="M70.009 145.508h55.039V300.09c0 6.628 5.372 12 12 12h125.951c6.627 0 12-5.372 12-12V145.508h55.057c6.628 0 12-5.373 12-12 0-4.003-1.959-7.548-4.972-9.728L207.501 20.519a12 12 0 00-14.957 0L62.53 124.123a12 12 0 007.479 21.385zm225.713-24h-32.723c-6.627 0-12 5.372-12 12V288.09H149.048V133.508c0-6.628-5.373-12-12-12h-32.725l95.699-76.259 95.7 76.259z" />
		<path
			d="M388.064 261.171c-6.627 0-12 5.373-12 12v84.989H24v-84.989c0-6.627-5.373-12-12-12s-12 5.373-12 12v96.989c0 6.627 5.373 12 12 12h376.064c6.627 0 12-5.373 12-12v-96.989c0-6.627-5.373-12-12-12z" />
	</g>
</svg>